<svg width="24" height="24" viewBox="0 0 24 24" fill="none" xmlns="http://www.w3.org/2000/svg">
<path d="M20.25 20.5C20.6642 20.5001 21 20.8358 21 21.25C20.9998 21.664 20.664 21.9999 20.25 22H3.75C3.33591 22 3.0002 21.664 3 21.25C3 20.8358 3.33579 20.5 3.75 20.5H20.25ZM12 2C12.4141 2.00011 12.75 2.33585 12.75 2.75V16.1895L16.4697 12.4697C16.7626 12.1768 17.2374 12.1768 17.5303 12.4697C17.8229 12.7626 17.8231 13.2375 17.5303 13.5303L12.5303 18.5303C12.2558 18.8047 11.8209 18.8221 11.5264 18.582L11.4697 18.5303L6.46973 13.5303C6.17686 13.2374 6.17692 12.7626 6.46973 12.4697C6.76262 12.1768 7.23738 12.1768 7.53027 12.4697L11.25 16.1895V2.75C11.25 2.33579 11.5858 2 12 2Z" fill="#8C8C8D"/>
</svg>
